<svg width="20" height="20" viewBox="0 0 20 20" fill="none" xmlns="http://www.w3.org/2000/svg">
<path d="M10.191 20C5.0424 20 0.487364 15.7498 0.0361573 10.5297C-0.415049 5.30956 3.40946 1.05664 8.55536 1.05664C13.7013 1.05664 18.259 5.30684 18.7102 10.5297C19.1614 15.7525 15.3369 20 10.191 20Z" fill="black"/>
<path d="M10.6363 19.7717C5.48771 19.7717 0.932676 15.5242 0.481469 10.3014C0.030263 5.07853 3.85478 0.831055 9.00336 0.831055C14.152 0.831055 18.7043 5.07853 19.1555 10.3014C19.6067 15.5242 15.7849 19.7717 10.6363 19.7717Z" fill="#3F474B"/>
<g opacity="0.7">
<path d="M10.6363 19.7707C5.48771 19.7707 0.932676 15.5232 0.481469 10.3004C0.030263 5.07755 3.85478 0.830078 9.00336 0.830078C14.152 0.830078 18.7043 5.07755 19.1555 10.3004C19.6067 15.5232 15.7849 19.7707 10.6363 19.7707Z" fill="white"/>
</g>
<path d="M10.6363 19.7717C5.48771 19.7717 0.932676 15.5242 0.481469 10.3014C0.030263 5.07853 3.85478 0.831055 9.00336 0.831055C14.152 0.831055 18.7043 5.07853 19.1555 10.3014C19.6067 15.5242 15.7849 19.7717 10.6363 19.7717ZM9.15913 2.65101C5.00159 2.65101 1.9076 6.08387 2.27824 10.3014C2.64887 14.5189 6.3203 17.949 10.4778 17.949C14.6354 17.949 17.7294 14.5189 17.3587 10.3014C16.9881 6.08387 13.3221 2.65101 9.15913 2.65101Z" fill="#3F474B"/>
<path d="M10.3379 16.3C8.72968 16.2684 7.18827 15.6416 6.00366 14.5378C4.81906 13.4339 4.07289 11.929 3.90553 10.3062C3.82471 9.54282 3.9048 8.77078 4.14046 8.04122C4.37613 7.31167 4.76199 6.64127 5.27247 6.07448C5.78294 5.50769 6.40637 5.05747 7.1014 4.75366C7.79643 4.44985 8.54719 4.2994 9.30389 4.31229C10.9146 4.34008 12.4596 4.96512 13.6472 6.0694C14.8347 7.17367 15.5826 8.68076 15.7497 10.3062C15.8307 11.0707 15.7503 11.8439 15.5138 12.5744C15.2773 13.3049 14.8903 13.976 14.3783 14.543C13.8664 15.11 13.2413 15.56 12.5446 15.8629C11.848 16.1659 11.0957 16.3149 10.3379 16.3ZM9.45966 6.12135C8.9321 6.112 8.40863 6.21669 7.92404 6.42847C7.43946 6.64025 7.00487 6.95425 6.64919 7.3496C6.2935 7.74496 6.02486 8.2126 5.86113 8.72143C5.69741 9.23026 5.64234 9.76862 5.69961 10.3007C5.81244 11.4341 6.33095 12.4862 7.15701 13.2579C7.98307 14.0296 9.05934 14.4673 10.1821 14.4882C10.7094 14.4975 11.2327 14.3929 11.717 14.1813C12.2014 13.9697 12.6359 13.6559 12.9915 13.2609C13.3471 12.8658 13.6159 12.3985 13.7798 11.89C13.9437 11.3815 13.999 10.8435 13.9422 10.3116C13.83 9.17771 13.3117 8.12494 12.4856 7.35268C11.6595 6.58043 10.5829 6.14232 9.45966 6.12135Z" fill="#3F474B"/>
<path d="M12.1517 10.3013C12.1846 10.6029 12.1537 10.9082 12.0611 11.1967C11.9686 11.4853 11.8165 11.7506 11.615 11.9748C11.4135 12.1991 11.1672 12.3772 10.8925 12.4974C10.6178 12.6175 10.321 12.6769 10.0219 12.6716C9.38587 12.6602 8.77603 12.4127 8.30781 11.9759C7.83959 11.5391 7.54548 10.9433 7.48118 10.3013C7.44873 9.99953 7.47998 9.69421 7.57285 9.40565C7.66572 9.11708 7.81807 8.85187 8.01979 8.62766C8.22151 8.40344 8.46797 8.22536 8.74278 8.10524C9.0176 7.98512 9.31448 7.92572 9.61367 7.93099C10.2492 7.94301 10.8584 8.19082 11.3261 8.62757C11.7937 9.06433 12.0875 9.65976 12.1517 10.3013Z" fill="#3F474B"/>
<path d="M16.3706 3.67806L15.9141 1.87717L17.7672 0L18.2211 1.80088L16.3706 3.67806Z" fill="black"/>
<path d="M16.375 3.67796L18.1503 4.14112L20.0008 2.26395L18.2255 1.80078L16.375 3.67796Z" fill="black"/>
<path d="M17.3414 3.05554L16.9844 2.69336L9.38412 10.4032L9.74116 10.7654L17.3414 3.05554Z" fill="black"/>
</svg>
